<svg width="26" height="26" viewBox="0 0 26 26" fill="none" xmlns="http://www.w3.org/2000/svg">
<path d="M11.8444 13.831L6.01869 15.7834C6.01869 15.7834 5.56041 15.2165 5.17757 14.9264C4.76966 14.6174 4 14.2837 4 14.2837C4 13.0696 4.33607 11.9725 5.17757 10.713C5.86911 9.67787 6.86195 8.8346 7.55605 8.39429C8.03894 9.1004 8.55094 9.51973 9.12588 9.88726C9.35765 10.0354 9.60043 10.1756 9.85419 10.3222C9.93427 10.3684 10.0154 10.4153 10.0977 10.4632C10.4416 10.6637 10.8077 10.8848 11.2026 11.1624C11.6492 11.4765 12.0004 11.7395 12.3255 12.005C12.3192 12.2805 12.2897 12.866 12.1552 13.1451C11.961 13.5479 11.8444 13.831 11.8444 13.831Z" fill="#9A9AA0"/>
<path d="M13.549 12.893C12.7917 12.168 12.2677 11.7259 11.3099 11.0524C10.9094 10.7709 10.5386 10.547 10.1929 10.3455C10.1092 10.2967 10.0272 10.2493 9.94665 10.2028C9.69374 10.0568 9.45529 9.91905 9.22706 9.77315C8.66344 9.41286 8.16518 9.00447 7.6929 8.30992C8.32708 7.92755 8.83138 7.72673 9.28345 7.5467C9.88089 7.30879 10.3871 7.10721 10.9813 6.57092C11.9194 5.72432 12.7477 4 12.7477 4C12.7477 4 18.9668 7.91276 20.8512 10.7595L13.8411 13.1411L13.549 12.893Z" fill="#9A9AA0"/>
<path d="M16.1121 21.7108C15.3432 21.9365 15.3551 21.7822 15.3551 21.7822C15.3551 21.7822 15.4224 21.0388 15.4393 20.2111C15.4481 19.7782 15.4363 19.4674 15.1028 19.1399C14.7415 18.785 14.3323 18.6782 13.7812 18.7114C13.1999 18.7464 13.0292 18.8976 12.7477 19.2113C12.5486 19.4331 12.4427 19.8768 12.4427 19.8768C12.4427 19.8768 12.2852 20.4953 12.0748 20.8538C11.7728 21.3684 11.2838 22.0553 10.9813 21.9965C9.99343 21.8042 8.96669 21.4315 7.86916 20.7824C7.06776 20.3085 6.01869 19.3541 6.01869 19.3541C6.01869 19.3541 6.43229 18.5921 6.52337 18.0687C6.62428 17.4886 6.43925 16.569 6.43925 16.569L11.4832 14.7941C11.4832 14.7941 11.3351 15.4522 11.516 15.8241C11.8796 16.5717 12.8806 16.856 13.7812 16.5925C14.7586 16.3066 15.2684 15.7824 14.9346 14.5693C14.8049 14.0982 14.4546 13.7838 14.4546 13.7838L21.2684 11.4752C21.7392 12.4022 22 13.4242 22 14.4979C22 16.5395 20.8486 18.8265 19.0561 20.2111C18.2876 20.8047 17.0548 21.4341 16.1121 21.7108Z" fill="#9A9AA0"/>
<path d="M11.8444 13.831L6.01869 15.7834C6.01869 15.7834 5.56041 15.2165 5.17757 14.9264C4.76966 14.6174 4 14.2837 4 14.2837C4 13.0696 4.33607 11.9725 5.17757 10.713C5.86911 9.67787 6.86195 8.8346 7.55605 8.39429C8.03894 9.1004 8.55094 9.51973 9.12588 9.88726C9.35765 10.0354 9.60043 10.1756 9.85419 10.3222C9.93427 10.3684 10.0154 10.4153 10.0977 10.4632C10.4416 10.6637 10.8077 10.8848 11.2026 11.1624C11.6492 11.4765 12.0004 11.7395 12.3255 12.005C12.3192 12.2805 12.2897 12.866 12.1552 13.1451C11.961 13.5479 11.8444 13.831 11.8444 13.831Z" fill="#9A9AA0"/>
<path d="M13.549 12.893C12.7917 12.168 12.2677 11.7259 11.3099 11.0524C10.9094 10.7709 10.5386 10.547 10.1929 10.3455C10.1092 10.2967 10.0272 10.2493 9.94665 10.2028C9.69374 10.0568 9.45529 9.91905 9.22706 9.77315C8.66344 9.41286 8.16518 9.00447 7.6929 8.30992C8.32708 7.92755 8.83138 7.72673 9.28345 7.5467C9.88089 7.30879 10.3871 7.10721 10.9813 6.57092C11.9194 5.72432 12.7477 4 12.7477 4C12.7477 4 18.9668 7.91276 20.8512 10.7595L13.8411 13.1411L13.549 12.893Z" fill="#9A9AA0"/>
<path d="M16.1121 21.7108C15.3432 21.9365 15.3551 21.7822 15.3551 21.7822C15.3551 21.7822 15.4224 21.0388 15.4393 20.2111C15.4481 19.7782 15.4363 19.4674 15.1028 19.1399C14.7415 18.785 14.3323 18.6782 13.7812 18.7114C13.1999 18.7464 13.0292 18.8976 12.7477 19.2113C12.5486 19.4331 12.4427 19.8768 12.4427 19.8768C12.4427 19.8768 12.2852 20.4953 12.0748 20.8538C11.7728 21.3684 11.2838 22.0553 10.9813 21.9965C9.99343 21.8042 8.96669 21.4315 7.86916 20.7824C7.06776 20.3085 6.01869 19.3541 6.01869 19.3541C6.01869 19.3541 6.43229 18.5921 6.52337 18.0687C6.62428 17.4886 6.43925 16.569 6.43925 16.569L11.4832 14.7941C11.4832 14.7941 11.3351 15.4522 11.516 15.8241C11.8796 16.5717 12.8806 16.856 13.7812 16.5925C14.7586 16.3066 15.2684 15.7824 14.9346 14.5693C14.8049 14.0982 14.4546 13.7838 14.4546 13.7838L21.2684 11.4752C21.7392 12.4022 22 13.4242 22 14.4979C22 16.5395 20.8486 18.8265 19.0561 20.2111C18.2876 20.8047 17.0548 21.4341 16.1121 21.7108Z" fill="#9A9AA0"/>
<path d="M4.42056 16.9974C4.71946 17.7151 5.51402 18.7114 5.51402 18.7114C5.51402 18.7114 5.89057 17.56 5.68224 16.8546C5.42018 15.9672 4 14.9978 4 14.9978C4 14.9978 4.10909 16.2496 4.42056 16.9974Z" fill="#9A9AA0"/>
</svg>
